<?xml version="1.0" standalone="no"?>
<!DOCTYPE svg PUBLIC "-//W3C//DTD SVG 20010904//EN"
 "http://www.w3.org/TR/2001/REC-SVG-20010904/DTD/svg10.dtd">
<svg version="1.0" xmlns="http://www.w3.org/2000/svg"
 width="320.000000pt" height="320.000000pt" viewBox="0 0 320.000000 320.000000"
 preserveAspectRatio="xMidYMid meet">
<metadata>
Created by potrace 1.11, written by Peter Selinger 2001-2013
</metadata>
<g transform="translate(0.000000,320.000000) scale(0.100000,-0.100000)"
fill="#000000" stroke="none">
<path d="M1062 2785 c-55 -24 -62 -56 -62 -285 0 -231 7 -261 64 -285 52 -22
1020 -22 1072 0 57 24 64 54 64 285 0 231 -7 261 -64 285 -52 22 -1024 21
-1074 0z"/>
<path d="M988 1862 c-84 -86 -143 -157 -158 -188 l-25 -49 0 -505 0 -505 24
-48 c31 -60 81 -110 140 -139 l46 -23 585 0 585 0 45 23 c61 32 106 77 138
137 l27 50 0 505 0 505 -25 50 c-15 32 -72 99 -159 188 l-134 137 -477 0 -477
0 -135 -138z m750 -174 c8 -8 12 -62 12 -175 l0 -163 163 0 c113 0 167 -4 175
-12 17 -17 17 -259 0 -276 -8 -8 -62 -12 -175 -12 l-163 0 0 -163 c0 -113 -4
-167 -12 -175 -17 -17 -259 -17 -276 0 -8 8 -12 62 -12 175 l0 163 -163 0
c-113 0 -167 4 -175 12 -17 17 -17 259 0 276 8 8 62 12 175 12 l163 0 0 163
c0 113 4 167 12 175 8 8 53 12 138 12 85 0 130 -4 138 -12z"/>
</g>
</svg>
